<svg xmlns="http://www.w3.org/2000/svg" xmlns:svgjs="http://svgjs.com/svgjs" xmlns:xlink="http://www.w3.org/1999/xlink" width="288" height="288"><svg xmlns="http://www.w3.org/2000/svg" xmlns:svgjs="http://svgjs.com/svgjs" xmlns:xlink="http://www.w3.org/1999/xlink" width="288" height="288" viewBox="0 0 288 288"><svg xmlns="http://www.w3.org/2000/svg" width="288" height="288" aria-hidden="true" data-bbox="4.2 0 191.7 200.1" viewBox="4.2 0 191.7 200.1"><path fill="#288bde" d="M191.7 50h-79.2V4.2c0-2.3-1.9-4.2-4.2-4.2H8.3C6 0 4.2 1.9 4.2 4.2v191.7c0 2.3 1.9 4.2 4.2 4.2h183.3c2.3 0 4.2-1.9 4.2-4.2V54.2c-.1-2.3-1.9-4.2-4.2-4.2zM37.5 191.7v-33.3h41.7v33.3H37.5zM83.3 150h-50c-2.3 0-4.2 1.9-4.2 4.2v37.5H12.5V8.3h91.7v183.3H87.5v-37.5c0-2.2-1.9-4.1-4.2-4.1zm104.2 41.7h-75V58.3h75v133.4zM50 83.3H25c-2.3 0-4.2 1.9-4.2 4.2v41.7c0 2.3 1.9 4.2 4.2 4.2h25c2.3 0 4.2-1.9 4.2-4.2V87.5c0-2.3-1.9-4.2-4.2-4.2zM45.8 125H29.2V91.7h16.7V125zm50 4.2V87.5c0-2.3-1.9-4.2-4.2-4.2h-25c-2.3 0-4.2 1.9-4.2 4.2v41.7c0 2.3 1.9 4.2 4.2 4.2h25c2.4-.1 4.2-1.9 4.2-4.2zm-8.3-4.2H70.8V91.7h16.7V125zm37.5-8.3h50c2.3 0 4.2-1.9 4.2-4.2V79.2c0-2.3-1.9-4.2-4.2-4.2h-50c-2.3 0-4.2 1.9-4.2 4.2v33.3c0 2.3 1.9 4.2 4.2 4.2zm4.2-33.4h41.7v25h-41.7v-25zM125 175h50c2.3 0 4.2-1.9 4.2-4.2v-33.3c0-2.3-1.9-4.2-4.2-4.2h-50c-2.3 0-4.2 1.9-4.2 4.2v33.3c0 2.3 1.9 4.2 4.2 4.2zm4.2-33.3h41.7v25h-41.7v-25zM33.3 58.3h12.5v12.5c0 2.3 1.9 4.2 4.2 4.2h16.7c2.3 0 4.2-1.9 4.2-4.2V58.3h12.5c2.3 0 4.2-1.9 4.2-4.2V37.5c0-2.3-1.9-4.2-4.2-4.2H70.8V20.8c0-2.3-1.9-4.2-4.2-4.2H50c-2.3 0-4.2 1.9-4.2 4.2v12.5H33.3c-2.3 0-4.2 1.9-4.2 4.2v16.7c.1 2.3 1.9 4.1 4.2 4.1zm4.2-16.6H50c2.3 0 4.2-1.9 4.2-4.2V25h8.3v12.5c0 2.3 1.9 4.2 4.2 4.2h12.5V50H66.7c-2.3 0-4.2 1.9-4.2 4.2v12.5h-8.3V54.2c0-2.3-1.9-4.2-4.2-4.2H37.5v-8.3z" class="color000 svgShape color00e"/></svg></svg></svg>