<svg xmlns="http://www.w3.org/2000/svg" xmlns:svgjs="http://svgjs.com/svgjs" xmlns:xlink="http://www.w3.org/1999/xlink" width="288" height="288"><svg xmlns="http://www.w3.org/2000/svg" width="288" height="288" aria-hidden="true" data-bbox="2.7 2.7 54.6 54.6" viewBox="2.7 2.7 54.6 54.6"><path fill="#8b724f" d="M30 2.7C15 2.7 2.7 15 2.7 30S15 57.3 30 57.3 57.3 45 57.3 30 45 2.7 30 2.7zm0 49.2C17.9 51.9 8.1 42.1 8.1 30 8.1 17.9 17.9 8.1 30 8.1S51.9 17.9 51.9 30c0 12.1-9.8 21.9-21.9 21.9z" class="color000 svgShape"/><path fill="#8b724f" d="M32.2 19.6c-1.2-1.2-3.2-1.2-4.5 0L20 27.3c-1.2 1.2-1.2 3.2 0 4.5 1.2 1.2 3.2 1.2 4.5 0l2.4-2.4v8.8c0 1.7 1.4 3.2 3.2 3.2 1.7 0 3.2-1.4 3.2-3.2v-8.8l2.4 2.4c1.2 1.2 3.2 1.2 4.5 0 1.2-1.2 1.2-3.2 0-4.5l-8-7.7z" class="color000 svgShape"/></svg></svg>