<svg xmlns="http://www.w3.org/2000/svg" xmlns:svgjs="http://svgjs.com/svgjs" xmlns:xlink="http://www.w3.org/1999/xlink" width="288" height="288"><svg xmlns="http://www.w3.org/2000/svg" xmlns:svgjs="http://svgjs.com/svgjs" xmlns:xlink="http://www.w3.org/1999/xlink" width="288" height="288" viewBox="0 0 288 288"><svg xmlns="http://www.w3.org/2000/svg" width="288" height="288" aria-hidden="true" data-bbox="0 17.4 200 165" viewBox="0 17.4 200 165"><path fill="#288bde" d="M195.7 17.4H4.3c-2.4 0-4.3 1.9-4.3 4.3v121.7c0 2.4 1.9 4.3 4.3 4.3h81.9c-.6 7.1-4.7 26.1-18.7 26.1-2.4 0-4.3 1.9-4.3 4.3s1.9 4.3 4.3 4.3h69.6c2.4 0 4.3-1.9 4.3-4.3s-1.9-4.3-4.3-4.3c-13.8 0-18-18.6-18.7-26.1h77.3c2.4 0 4.3-1.9 4.3-4.3V21.7c0-2.4-1.9-4.3-4.3-4.3zm-76.4 156.5H85.4c6.4-7.7 9.2-18.8 9.6-26.1h14.7c.4 7.4 3.2 18.4 9.6 26.1zm72-34.8H8.7v-113h182.6v113zM33.5 87.5c-1.4-2-.9-4.7 1-6.1l26.8-19.2c1-.7 2.2-1 3.4-.7l45.4 9.3 54.7-33c2.1-1.2 4.7-.6 6 1.5 1.2 2.1.6 4.7-1.5 6l-56.2 33.9c-.9.6-2 .7-3.1.5l-45.2-9.2-25.2 18c-.8.5-1.7.8-2.5.8-1.4.1-2.7-.6-3.6-1.8zm23 16.8H39.1c-2.4 0-4.3 1.9-4.3 4.3V126c0 2.4 1.9 4.3 4.3 4.3h17.4c2.4 0 4.3-1.9 4.3-4.3v-17.4c.1-2.3-1.9-4.3-4.3-4.3zm-4.3 17.4h-8.7V113h8.7v8.7zM91.3 87H73.9c-2.4 0-4.3 1.9-4.3 4.3v34.8c0 2.4 1.9 4.3 4.3 4.3h17.4c2.4 0 4.3-1.9 4.3-4.3V91.3c.1-2.4-1.9-4.3-4.3-4.3zM87 121.7h-8.7v-26H87v26zm39.1-26h-17.4c-2.4 0-4.3 1.9-4.3 4.3v26.1c0 2.4 1.9 4.3 4.3 4.3h17.4c2.4 0 4.3-1.9 4.3-4.3V100c0-2.4-1.9-4.3-4.3-4.3zm-4.4 26H113v-17.4h8.7v17.4zm39.2-52.1h-17.4c-2.4 0-4.3 1.9-4.3 4.3v52.2c0 2.4 1.9 4.3 4.3 4.3h17.4c2.4 0 4.3-1.9 4.3-4.3V73.9c0-2.4-1.9-4.3-4.3-4.3zm-4.4 52.1h-8.7V78.3h8.7v43.4z" class="color000 svgShape color00e"/></svg></svg></svg>