<svg xmlns="http://www.w3.org/2000/svg" xmlns:svgjs="http://svgjs.com/svgjs" xmlns:xlink="http://www.w3.org/1999/xlink" width="288" height="288"><svg xmlns="http://www.w3.org/2000/svg" xmlns:svgjs="http://svgjs.com/svgjs" xmlns:xlink="http://www.w3.org/1999/xlink" width="288" height="288" viewBox="0 0 288 288"><svg xmlns="http://www.w3.org/2000/svg" width="288" height="288" aria-hidden="true" data-bbox="12.1 0.5 175.799 198.9" viewBox="12.1 .5 175.799 198.9"><path fill="#288bde" d="m187.7 123.7-18.2-54c-.6-1.7-2.1-2.8-3.9-2.8h-14.8V31.1c0-19.5-12.7-30.6-35-30.6h-8.3C87.8.5 67.8 10 67.8 31.1v35.7H57.7c-1.8 0-3.4 1.1-3.9 2.8L12.3 194c-.4 1.3-.2 2.7.6 3.7.8 1.1 2 1.7 3.4 1.7H130c2.3 0 4.1-1.9 4.1-4.1s-1.9-4.1-4.1-4.1H22L60.7 75.1h7.1v12.4c0 2.3 1.9 4.1 4.1 4.1s4.1-1.9 4.1-4.1V75.1h66.3v12.4c0 2.3 1.9 4.1 4.1 4.1s4.1-1.9 4.1-4.1V75.1h11.8l17.3 51.2c.7 2.2 3.1 3.3 5.3 2.6 2.3-.7 3.5-3 2.8-5.2zm-45.3-56.9H76.1V31.1c0-16.5 16.9-22.3 31.4-22.3h8.3c12.2 0 26.7 3.9 26.7 22.3v35.7zm31.4 103.3c0 7.9-5.9 13.3-14.8 13.6v3.3c0 2.3-1.9 4.1-4.1 4.1s-4.1-1.9-4.1-4.1v-4.8c-5-2.1-8.1-6.5-8.1-12.2 0-2.3 1.9-4.1 4.1-4.1s4.1 1.9 4.1 4.1c0 2.7 1.5 4 3.3 4.7.2 0 .5-.1.7-.1.9 0 1.7.3 2.3.8h1c2.2 0 7.3-.5 7.3-5.4 0-3-.6-3.5-7.3-6.8l-3.6-1.8c-6.7-3.3-11.9-5.9-11.9-14.3 0-6.5 4.1-11.3 10.5-13.1v-3.5c0-2.3 1.9-4.1 4.1-4.1s4.1 1.9 4.1 4.1v3c7.5 1.1 12.3 6.3 12.3 13.5 0 2.3-1.9 4.1-4.1 4.1s-4.1-1.9-4.1-4.1c0-4.9-5-5.5-7.1-5.5-2.2 0-7.3.5-7.3 5.5 0 2.9.6 3.5 7.3 6.8l3.6 1.8c6.5 3.5 11.8 6.1 11.8 14.5z" class="color000 svgShape color00e"/></svg></svg></svg>