<svg xmlns="http://www.w3.org/2000/svg" xmlns:svgjs="http://svgjs.com/svgjs" xmlns:xlink="http://www.w3.org/1999/xlink" width="288" height="288"><svg xmlns="http://www.w3.org/2000/svg" width="288" height="288" aria-hidden="true" data-bbox="4 14.442 91.411 70.967" viewBox="4 14.442 91.411 70.967"><path fill="#8b724f" d="M91.86 17.755c-4.088-1.144-25.104-6.361-42.099.837C30.174 9.943 7.226 17.489 7.12 17.533 4.928 18.447 4 19.377 4 23.218v56.246c0 .786 1.049 4.794 4.972 4.198 4.706-.715 25.049-2.349 32.49-1.909.461.027.617.116.681.158.149.375 1.582 3.498 7.402 3.498 4.831 0 7.193-3.397 7.259-3.49.004-.006.004-.012.008-.018.062.006 1.407.051 1.465.054 7.815.322 23.058.618 31.278 1.313 4.636.392 5.856-3.483 5.856-5.703v-53.86c0-3.178-1.203-5.294-3.551-5.95zm-3.89 6.454v49.778c-11.116-2.882-24.447-3.935-35.076-1.111V24.209c16.808-6.028 29.961-1.577 35.076 0zm-41.453 0v48.366c-7.44-2.766-20.195-2.261-36.139 1.434v-49.8c17.006-4.383 27.635-3.388 36.139 0z" class="color000 svgShape"/></svg></svg>