<svg xmlns="http://www.w3.org/2000/svg" xmlns:svgjs="http://svgjs.com/svgjs" xmlns:xlink="http://www.w3.org/1999/xlink" width="288" height="288"><svg xmlns="http://www.w3.org/2000/svg" xmlns:svgjs="http://svgjs.com/svgjs" xmlns:xlink="http://www.w3.org/1999/xlink" width="288" height="288" viewBox="0 0 288 288"><svg xmlns="http://www.w3.org/2000/svg" width="288" height="288" aria-hidden="true" data-bbox="6.496 31.475 187.009 141.025" viewBox="6.496 31.475 187.009 141.025"><path fill="#288bde" d="M192.6 110.1c-2.5-12-10.2-22-22.3-29-3.5-2-7.8-3.9-12.3-5.5-4.7-17.7-19.8-32.1-40.8-38.9-27.6-8.9-60.1-6.3-82.6 6.8-14.6 8.5-24 20.6-27 35.1-3.4 16.3 1.7 27.8 6.5 34.5 3.2 4.5 6.7 7.5 9.1 9.2l-5.8 31.2L49 137.8c4 1.4 14.5 4.7 27.6 5.9.7.1 1.4.1 2.1.2 2.6 2.9 5.6 5.5 8.9 7.9 16.8 12 35.6 13.2 48.5 12.1 10.4-.9 18.7-3.5 22.2-4.7l26.7 13.3-4.9-26.4c5.2-4.1 16.7-15.6 12.5-36zM80.9 135.5h-.6c-1.1-.1-2.1-.1-3.1-.2-15.5-1.4-26.9-5.9-27-6l-1.8-.7-19.7 9.8 3.8-20.2-2.6-1.5s-4.8-2.8-8.9-8.5c-3.9-5.4-7.9-14.6-5.1-27.9 2.5-12.1 10.5-22.3 23-29.6 12.1-7 27.9-10.9 44.4-10.9 10.7 0 21.6 1.7 31.4 4.8 18.8 6.1 32.1 19 35.6 34.7 0 .2.1.3.1.5.2 1 .4 1.9.5 2.7 1.9 14.6-5.4 29-20.1 39.5-17.2 12.4-36.6 14.2-49.9 13.5zm92.7 21.9-13.2-6.6-1.7-.8-1.8.7c-.1 0-9.2 3.7-21.6 4.8-11.5 1-28.2 0-42.9-10.5-.5-.3-.9-.7-1.3-1 13.3-.7 29.7-4.3 44.6-15 16.1-11.5 24.6-27.3 23.8-43.7 2.4 1 4.6 2.1 6.6 3.2 9.9 5.7 16.3 13.9 18.2 23.4 4.1 19.6-10.2 28.3-11 28.7l-2.6 1.5 2.9 15.3z" class="color000 svgShape color00e"/></svg></svg></svg>