<svg xmlns="http://www.w3.org/2000/svg" xmlns:svgjs="http://svgjs.com/svgjs" xmlns:xlink="http://www.w3.org/1999/xlink" width="288" height="288"><svg xmlns="http://www.w3.org/2000/svg" xmlns:svgjs="http://svgjs.com/svgjs" xmlns:xlink="http://www.w3.org/1999/xlink" width="288" height="288" viewBox="0 0 288 288"><svg xmlns="http://www.w3.org/2000/svg" width="288" height="288" aria-hidden="true" data-bbox="17.5 14 165 172" viewBox="17.5 14 165 172"><path fill="#288bde" d="M144.5 93c-2.4-23-14.3-33.6-24-38.4-7.2-3.6-14.1-4.6-17.8-4.8-.2 0-.3-.1-.5-.1H100c-.2 0-.4 0-.5.1-3.8.2-10.7 1.2-18 4.8-9.6 4.8-21.6 15.4-24 38.4 0 .6-1 13.8 7.6 23.8 8.1 9.4 12 15.8 11.1 24.5 0 .3-.1.6-.1 1-.3 2.7-.9 7.4 2.1 10.6 2 2.1 5 3.1 9.2 3.1h27.4c4.2 0 7.2-1.1 9.2-3.2 3-3.2 2.4-7.8 2.1-10.5 0-.3-.1-.7-.1-1-.9-8.7 3-15.1 11.1-24.5 8.4-9.9 7.4-23.2 7.4-23.8zm-23.7 48.9c0 .3.1.7.1 1.1.3 2.1.6 5-.8 6.5-1.2 1.2-3.7 1.6-7.4 1.6H89.2c-3.7 0-6.2-.3-7.4-1.6-1.4-1.5-1-4.4-.8-6.4 0-.4.1-.8.1-1.1 1.2-11.5-4.8-19.6-12.3-28.3-7.2-8.4-6.4-20.1-6.4-20.1 3.7-36.3 32.7-38.7 38.5-38.8 5.7.1 34.8 2.4 38.5 38.7 0 .1.8 11.8-6.4 20.2-7.3 8.6-13.4 16.7-12.2 28.2zM110.5 186h-19c-1.7 0-3-1.3-3-3s1.3-3 3-3h19c1.7 0 3 1.3 3 3s-1.3 3-3 3zM39.5 101h-19c-1.7 0-3-1.3-3-3s1.3-3 3-3h19c1.7 0 3 1.3 3 3s-1.3 3-3 3zM104 17v19c0 1.7-1.3 3-3 3s-3-1.3-3-3V17c0-1.7 1.3-3 3-3s3 1.3 3 3zM179.5 101h-19c-1.7 0-3-1.3-3-3s1.3-3 3-3h19c1.7 0 3 1.3 3 3s-1.3 3-3 3zM158.9 43l-13.6 13.3c-1.2 1.2-3.1 1.1-4.2-.1-1.2-1.2-1.1-3.1.1-4.2l13.6-13.3c1.2-1.2 3.1-1.1 4.2.1 1.1 1.2 1.1 3.1-.1 4.2zM41 38.8c1.2-1.2 3.1-1.2 4.2-.1L58.9 52c1.2 1.2 1.2 3.1.1 4.2-1.2 1.2-3.1 1.2-4.2.1L41.1 43c-1.2-1.1-1.2-3-.1-4.2zM117.5 176h-33c-1.7 0-3-1.3-3-3s1.3-3 3-3h33c1.7 0 3 1.3 3 3s-1.3 3-3 3zM115 166H87c-1.7 0-3-1.3-3-3s1.3-3 3-3h28c1.7 0 3 1.3 3 3s-1.3 3-3 3z" class="color000 svgShape color00e"/></svg></svg></svg>