<svg xmlns="http://www.w3.org/2000/svg" xmlns:svgjs="http://svgjs.com/svgjs" xmlns:xlink="http://www.w3.org/1999/xlink" width="288" height="288"><svg xmlns="http://www.w3.org/2000/svg" xmlns:svgjs="http://svgjs.com/svgjs" xmlns:xlink="http://www.w3.org/1999/xlink" width="288" height="288" viewBox="0 0 288 288"><svg xmlns="http://www.w3.org/2000/svg" width="288" height="288" aria-hidden="true" data-bbox="5 27 190 147" viewBox="5 27 190 147"><path fill="#288bde" d="M48 166h104v8H48v-8zM192.243 27H7.858C6.272 27 5 27.744 5 29.332v122.094C5 153.015 6.272 155 7.858 155H192.24c1.586 0 2.76-1.985 2.76-3.573V29.332c0-1.588-1.171-2.332-2.757-2.332zm-91.522 122.188a4.937 4.937 0 0 1-4.933-4.94 4.936 4.936 0 0 1 4.933-4.94 4.937 4.937 0 0 1 4.933 4.94 4.936 4.936 0 0 1-4.933 4.94zM187 133H13V35h174v98z" class="color000 svgShape color00e"/></svg></svg></svg>