<svg xmlns="http://www.w3.org/2000/svg" xmlns:svgjs="http://svgjs.com/svgjs" xmlns:xlink="http://www.w3.org/1999/xlink" width="288" height="288"><svg xmlns="http://www.w3.org/2000/svg" xmlns:svgjs="http://svgjs.com/svgjs" xmlns:xlink="http://www.w3.org/1999/xlink" width="288" height="288" viewBox="0 0 288 288"><svg xmlns="http://www.w3.org/2000/svg" width="288" height="288" aria-hidden="true" data-bbox="0 16.7 200.1 166.7" viewBox="0 16.7 200.1 166.7"><path fill="#288bde" d="M195.8 16.7h-150c-2.3 0-4.2 1.9-4.2 4.2v30c-13.4 5.7-22.9 19-22.9 34.5 0 2.1.2 4.2.6 6.2-10.5 6.6-14.7 18-17.1 27.5-.3 1.3 0 2.7.9 3.8.8.9 1.9 1.4 3.1 1.4h.4c4.2-.5 7.9-1 11.2-1.8C6.9 132.7 0 146.9 0 161.8v17.4c0 2.3 1.9 4.2 4.2 4.2h100c2.3 0 4.2-1.9 4.2-4.2v-18.8c0-.7-.1-1.4-.1-2.1h87.6c2.3 0 4.2-1.9 4.2-4.2V20.8c-.1-2.3-2-4.1-4.3-4.1zM56.3 56.2c1.3 0 2.6.1 3.8.3.2 0 .5.1.7.1 9.4 1.5 17.5 7.6 21.7 16.3-9 .4-17.6-3.5-23.4-10.5-1.1-1.3-2.8-1.8-4.3-1.3-1.6.5-2.8 1.8-3 3.4C50 77.4 40 87.3 27.5 89.2c-.2-1.3-.3-2.5-.3-3.7-.1-16.2 13-29.3 29.1-29.3zm29.1 29.2c0 16.1-13.1 29.2-29.2 29.2-11.9 0-22.1-7.2-26.7-17.4 13.2-2.4 24-11.6 28.5-24.1 7.6 6 17.1 9 27 8 .3 1.4.4 2.8.4 4.3zm-63.7 14.7c1.4 3.4 3.4 6.5 5.7 9.3-4.6 3.2-9.2 4.8-15.4 5.8 2-5.6 4.9-11.2 9.7-15.1zM100 175H8.3v-13.2c0-18.5 12.7-36 31-43 5.1 2.6 10.8 4.1 16.9 4.1 5.7 0 11.1-1.3 16-3.6 17 6.8 27.8 22.7 27.8 41.1V175zm91.7-25h-84.4c-1.2-5.8-3.3-11.2-6.2-16.2.2-.1.4-.2.5-.3l23.6-23.6c1.6-1.6 1.6-4.3 0-5.9-1.6-1.6-4.3-1.6-5.9 0l-23 23c-4.3-5.3-9.7-9.7-15.8-13 8.1-6.9 13.3-17.1 13.3-28.6 0-17.4-11.9-32-28-36.2-.3-.1-.6-.2-.8-.2-.7-.2-1.4-.3-2.1-.4-.6-.1-1.1-.2-1.7-.3-.5-.1-1-.1-1.5-.2-1.1-.1-2.3-.2-3.4-.2-2.1 0-4.2.2-6.3.6V25h141.7v125zM108.3 45.8c0-2.3 1.9-4.2 4.2-4.2h50c2.3 0 4.2 1.9 4.2 4.2s-1.9 4.2-4.2 4.2h-50c-2.3 0-4.2-1.9-4.2-4.2zm0 25c0-2.3 1.9-4.2 4.2-4.2h66.7c2.3 0 4.2 1.9 4.2 4.2s-1.9 4.2-4.2 4.2h-66.7c-2.3 0-4.2-1.9-4.2-4.2zm0 25c0-2.3 1.9-4.2 4.2-4.2h66.7c2.3 0 4.2 1.9 4.2 4.2s-1.9 4.2-4.2 4.2h-66.7c-2.3 0-4.2-1.9-4.2-4.2z" class="color000 svgShape color00e"/></svg></svg></svg>