<svg xmlns="http://www.w3.org/2000/svg" xmlns:svgjs="http://svgjs.com/svgjs" xmlns:xlink="http://www.w3.org/1999/xlink" width="288" height="288"><svg xmlns="http://www.w3.org/2000/svg" width="288" height="288" version="1.0" viewBox="0 0 288 288"><g fill="#207ea9" class="color000 svgShape" transform="matrix(.1 0 0 -.1 0 288)"><path d="M1410 2395l0-185 35 0 35 0 0 185 0 185-35 0-35 0 0-185zM1098 2344c-16-8-28-16-28-18 0-4 78-144 86-154 4-6 65 29 62 36-14 31-84 152-88 152-3-1-17-8-32-16zM1707 2281l-44-79 26-13c14-7 30-13 34-14 4 0 27 34 51 75l44 75-27 17c-14 10-29 18-32 18-4 0-27-36-52-79zM1370 2090c-126-16-231-69-326-164-113-113-166-239-167-395 0-136 40-242 170-452 91-146 87-128 93-379l5-225 63-3c48-2 62-6 62-19 0-29 44-93 83-120 50-35 117-37 170-4 37 23 87 94 87 124 0 13 13 17 63 19l62 3 5 225c6 252 5 250 100 390 73 107 139 257 156 350 31 181-24 350-160 486-127 127-294 186-466 164zm171-80c81-15 188-72 247-131 104-104 148-221 140-370-5-77-11-98-55-195-28-60-75-149-106-198-59-93-81-144-92-209l-6-37-227 2-227 3-6 46c-8 55-32 104-110 225-97 150-141 273-141 391 1 184 103 348 267 429 104 51 203 65 316 44zm129-1190l0-40-225 0-225 0 0 40 0 40 225 0 225 0 0-40zm0-95l0-45-225 0-225 0 0 45 0 45 225 0 225 0 0-45zm0-120l0-65-225 0-225 0 0 65 0 65 225 0 225 0 0-65zm-130-146c0-6-15-26-34-45-46-46-86-46-132 0-19 19-34 39-34 45 0 7 34 11 100 11 66 0 100-4 100-11z" class="color000 svgShape"/><path d="M1510 1853 c0 -40 1 -41 41 -47 98 -16 170 -90 193 -198 6 -24 11-28 42 -28 l37 0 -7 42 c-22 134 -131 243 -263 264 l-43 7 0 -40z" class="color000 svgShape"/></g></svg></svg>