<svg xmlns="http://www.w3.org/2000/svg" xmlns:svgjs="http://svgjs.com/svgjs" xmlns:xlink="http://www.w3.org/1999/xlink" width="288" height="288"><svg xmlns="http://www.w3.org/2000/svg" width="288" height="288" aria-hidden="true" data-bbox="18.592 3.833 159.019 173.492" viewBox="18.592 3.833 159.019 173.492"><path fill="#207ea9" d="M21.274 70.138a4.838 4.838 0 119.342 2.513c-6.412 23.84.516 49.482 18.079 66.918 25.164 24.975 64.897 26.86 92.286 5.694l-20.181-5.606a4.838 4.838 0 012.59-9.322l28.82 8.007c.127.035.245.087.367.132.079.029.158.052.236.085.261.112.511.243.745.396.045.029.085.066.129.097.201.141.389.296.565.465.031.029.066.049.096.079.029.029.048.064.076.093.172.182.329.375.471.581.027.039.059.075.085.114.151.235.278.484.388.744.034.08.058.162.088.243a4.851 4.851 0 01.224.857c.01.062.029.122.037.185l3.623 29.484a4.84 4.84 0 01-4.807 5.428 4.838 4.838 0 01-4.795-4.248l-2.509-20.416c-14.361 11.219-31.739 16.849-49.127 16.849-20.36 0-40.722-7.691-56.222-23.075-20.023-19.876-27.919-49.112-20.606-76.297zM147.507 41.59c-25.166-24.979-64.901-26.864-92.289-5.693L75.4 41.509a4.838 4.838 0 11-2.592 9.322l-28.817-8.013c-.127-.035-.245-.087-.366-.132-.079-.029-.158-.052-.236-.085a4.763 4.763 0 01-.744-.395c-.046-.03-.088-.067-.133-.099a4.763 4.763 0 01-.559-.46c-.032-.03-.069-.051-.1-.082-.03-.03-.05-.066-.079-.097a4.706 4.706 0 01-.463-.572c-.029-.041-.063-.079-.09-.121a4.855 4.855 0 01-.386-.74c-.035-.082-.06-.166-.09-.249a4.926 4.926 0 01-.224-.856c-.01-.061-.029-.119-.036-.181L36.856 9.261a4.837 4.837 0 014.21-5.393c2.64-.32 5.064 1.559 5.392 4.21l2.515 20.421c31.176-24.363 76.612-22.3 105.351 6.225 20.023 19.877 27.919 49.114 20.606 76.301a4.84 4.84 0 01-4.668 3.582 4.837 4.837 0 01-4.674-6.096c6.412-23.841-.516-49.484-18.081-66.921z" class="color000 svgShape"/></svg></svg>