<svg xmlns="http://www.w3.org/2000/svg" xmlns:svgjs="http://svgjs.com/svgjs" xmlns:xlink="http://www.w3.org/1999/xlink" width="288" height="288"><svg xmlns="http://www.w3.org/2000/svg" width="288" height="288" enable-background="new 0 0 100 71" viewBox="0 0 100 71"><path fill="#8b724f" d="M70.374,19.633H30.428c-1.264,0-2.293,1.029-2.293,2.294v26.781c0,1.265,1.029,2.293,2.293,2.293h39.946
	c1.265,0,2.293-1.028,2.293-2.293V21.927C72.667,20.663,71.639,19.633,70.374,19.633z M70.374,20.749
	c0.111,0,0.219,0.017,0.321,0.046L50.757,38.642L30.21,20.771c0.071-0.013,0.144-0.021,0.218-0.021H70.374z M71.55,48.708
	c0,0.648-0.527,1.177-1.176,1.177H30.428c-0.649,0-1.177-0.528-1.177-1.177V21.927c0-0.155,0.031-0.303,0.085-0.438L50.08,39.532
	c0.191,0.167,0.434,0.249,0.677,0.249c0.247,0,0.497-0.086,0.688-0.258l20.053-17.947c0.034,0.11,0.052,0.229,0.052,0.352V48.708z" class="message colorE72C55 svgShape"/></svg></svg>